<?xml version="1.0" standalone="no"?><!DOCTYPE svg PUBLIC "-//W3C//DTD SVG 1.1//EN" "http://www.w3.org/Graphics/SVG/1.1/DTD/svg11.dtd"><svg t="1667778655276" class="icon" viewBox="0 0 1025 1024" version="1.1" xmlns="http://www.w3.org/2000/svg" p-id="7151" width="450.439453125" height="450" xmlns:xlink="http://www.w3.org/1999/xlink"><path d="M96.618837 884.053333c-13.653333 6.826667-95.573333 58.026667-95.573333 78.506667C1.045504 1024 65.898837 1024 103.445504 1024c23.893333 0 58.026667-20.48 81.92-40.96-13.653333-23.893333-30.72-71.68-40.96-153.6-13.653333 27.306667-34.133333 47.786667-47.786667 54.613333z" fill="" p-id="7152"></path><path d="M769.045504 228.693333c-13.653333-6.826667-30.72-10.24-51.2-13.653333h-3.413333c-6.826667 0-10.24-3.413333-17.066667-3.413333s-10.24 0-17.066667-3.413334h-51.2c-10.24 0-23.893333 0-37.546666 3.413334C352.618837 245.76 1.045504 617.813333 1.045504 802.133333c0 6.826667 3.413333 13.653333 10.24 17.066667h6.826667c3.413333 0 10.24-3.413333 13.653333-3.413333 40.96-40.96 88.746667-75.093333 143.36-102.4V750.933333c3.413333 75.093333 13.653333 129.706667 23.893333 167.253334v3.413333c3.413333 6.826667 3.413333 10.24 6.826667 17.066667v3.413333s0 3.413333 3.413333 6.826667v3.413333c10.24 23.893333 17.066667 34.133333 20.48 34.133333 3.413333 3.413333 6.826667 3.413333 13.653334 3.413334 3.413333 0 6.826667 0 10.24-3.413334 20.48-6.826667 54.613333-47.786667 54.613333-116.053333 0-75.093333 34.133333-228.693333 34.133333-235.52 44.373333-13.653333 88.746667-27.306667 129.706667-37.546667l-88.746667 88.746667v20.48s0 3.413333 3.413334 3.413333c3.413333 3.413333 30.72 40.96 81.92 40.96 10.24 0 17.066667-6.826667 17.066666-17.066666s-13.653333-17.066667-23.893333-17.066667c-17.066667 0-30.72-6.826667-37.546667-13.653333 20.48-10.24 51.2-20.48 71.68-20.48 10.24 0 17.066667-6.826667 17.066667-17.066667s-6.826667-17.066667-17.066667-17.066667-20.48 0-30.72 3.413334l64.853334-64.853334c27.306667-3.413333 51.2-6.826667 75.093333-6.826666l-88.746667 160.426666v13.653334c0 3.413333 13.653333 64.853333 119.466667 64.853333 10.24 0 17.066667-6.826667 17.066667-17.066667s-10.24-17.066667-20.48-17.066666c-51.2 0-71.68-17.066667-78.506667-27.306667 27.306667-17.066667 81.92-40.96 112.64-40.96 10.24 0 17.066667-6.826667 17.066667-17.066667s-6.826667-17.066667-17.066667-17.066666c-27.306667 0-64.853333 13.653333-95.573333 27.306666l71.68-129.706666c126.293333-13.653333 245.76-109.226667 245.76-170.666667 0-88.746667-40.96-150.186667-119.466667-180.906667z m-238.933333 317.44c-3.413333 0-85.333333-6.826667-129.706667-37.546666-10.24-6.826667-20.48-17.066667-27.306667-27.306667-37.546667 20.48-150.186667 85.333333-204.8 160.426667-3.413333 3.413333-6.826667 6.826667-13.653333 6.826666-3.413333 0-6.826667 0-10.24-3.413333-6.826667-6.826667-10.24-17.066667-3.413333-23.893333 58.026667-81.92 174.08-146.773333 215.04-170.666667-10.24-17.066667-13.653333-40.96-13.653334-58.026667 0-10.24 6.826667-17.066667 17.066667-17.066666s17.066667 6.826667 17.066667 17.066666c0 27.306667 10.24 64.853333 44.373333 88.746667 30.72 20.48 88.746667 30.72 112.64 30.72 10.24 0 17.066667 10.24 17.066667 17.066667-3.413333 10.24-10.24 17.066667-20.48 17.066666z" fill="" p-id="7153" data-spm-anchor-id="a313x.7781069.0.i8" class="selected"></path><path d="M857.792171 0c-64.853333 0-197.973333 64.853333-310.613334 170.666667-3.413333-6.826667-3.413333-13.653333-10.24-17.066667-6.826667-6.826667-20.48-17.066667-40.96-17.066667-122.88 0-293.546667 136.533333-365.226666 259.413334-17.066667 30.72-37.546667 64.853333-61.44 95.573333C21.525504 563.2-12.607829 614.4 4.458837 645.12c0 3.413333 3.413333 6.826667 6.826667 6.826667C110.272171 464.213333 349.205504 238.933333 547.178837 184.32c27.306667-10.24 58.026667-13.653333 85.333334-13.653333 184.32 0 252.586667 81.92 276.48 157.013333 13.653333-44.373333 20.48-109.226667 3.413333-126.293333-6.826667-6.826667-6.826667-17.066667-3.413333-23.893334 6.826667-6.826667 17.066667-6.826667 23.893333-3.413333 40.96 34.133333 20.48 122.88 10.24 160.426667 34.133333-17.066667 81.92-64.853333 81.92-143.36C1025.045504 71.68 908.992171 0 857.792171 0z m13.653333 102.4c-10.24 0-17.066667-6.826667-17.066667-17.066667s6.826667-17.066667 17.066667-17.066666 17.066667 6.826667 17.066667 17.066666-6.826667 17.066667-17.066667 17.066667z" fill="" p-id="7154"></path></svg>